<svg xmlns:xlink="http://www.w3.org/1999/xlink" class="svgspr svgspr__ui_icon_bag" xmlns="http://www.w3.org/2000/svg" width="28"  height="28" ><defs><svg viewBox="0 0 4.773 4.92" id="ui_icon_bag" xmlns="http://www.w3.org/2000/svg"><defs><clipPath clipPathUnits="userSpaceOnUse" id="fa"><path d="M0 3.69h3.58V0H0z"></path></clipPath></defs><g clip-path="url(#fa)" transform="matrix(1.33333 0 0 -1.33333 0 4.92)"><path d="M3.006 1.662H.574L.772.276H2.81zm-.012 1.982a.138.138 0 1 0 .207-.182l-1.308-1.5a.135.135 0 0 0-.192-.015c-.007.008-.012.012-.015.017L.379 3.462a.136.136 0 0 0 .014.194.137.137 0 0 0 .192-.012L1.79 2.262zM2.46 1.326c0 .046.037.082.084.082a.08.08 0 0 0 .08-.082V.543a.081.081 0 0 0-.08-.083.082.082 0 0 0-.084.083zm-.502 0c0 .046.036.082.082.082a.083.083 0 0 0 .084-.082V.543A.083.083 0 0 0 2.04.46a.081.081 0 0 0-.082.083zm-.503 0c0 .046.038.082.083.082a.08.08 0 0 0 .08-.082V.543A.081.081 0 0 0 1.54.46a.083.083 0 0 0-.083.083zm-.503 0c0 .046.037.082.083.082a.083.083 0 0 0 .083-.082V.543A.083.083 0 0 0 1.036.46a.082.082 0 0 0-.083.083zM.139 2.379h.947a.139.139 0 0 0 .138-.138.14.14 0 0 0-.138-.139h-.81v-.275h3.028v.275h-.811a.139.139 0 0 0-.137.139c0 .075.06.138.137.138h.95a.139.139 0 0 0 .137-.138v-.552a.139.139 0 0 0-.137-.138H3.27L3.067.119A.143.143 0 0 0 2.929 0H.652a.139.139 0 0 0-.138.129L.312 1.551H.139a.14.14 0 0 0-.14.138v.552a.14.14 0 0 0 .14.138"></path></g></svg></defs>
                                    <use xlink:href="#ui_icon_bag" fill="#FFFFFF"></use>
                                </svg>