<svg xmlns:xlink="http://www.w3.org/1999/xlink" class="svgspr svgspr__ui_icon_login" xmlns="http://www.w3.org/2000/svg" width="28"  height="28" ><defs><svg viewBox="0 0 4.773 4.773" id="ui_icon_login" xmlns="http://www.w3.org/2000/svg"><defs><clipPath clipPathUnits="userSpaceOnUse" id="la"><path d="M0 3.58h3.58V0H0z"></path></clipPath></defs><g clip-path="url(#la)" transform="matrix(1.33333 0 0 -1.33333 0 4.773)"><path d="M2.617 1.652a.691.691 0 0 1-.69-.689.688.688 0 1 1 .69.689m.367-.605a.085.085 0 0 0 .084-.084.083.083 0 0 0-.084-.082h-.286V.595a.082.082 0 0 0-.08-.083.083.083 0 0 0-.085.083v.286h-.285a.081.081 0 0 0-.082.082c0 .046.035.084.082.084h.285v.286c0 .046.037.083.084.083a.082.082 0 0 0 .081-.083v-.286zM.275.137a.137.137 0 0 0-.275 0c0 .25.103.44.246.576.195.188.471.273.635.288a.14.14 0 0 1 .083.034v.002l.002.002c.01.01.02.025.022.041-.129.106-.189.254-.238.377-.024.058-.043.108-.057.124l-.002.002-.01.007a.776.776 0 0 0-.175.263.395.395 0 0 0 .011.348 1.12 1.12 0 0 0-.052.336c-.004.33.111.692.398.883.156.105.346.154.563.16.078.001.187.001.295-.018.121-.023.236-.07.306-.169.145.015.271-.067.371-.184.121-.139.206-.342.226-.465.014-.094.014-.188.002-.285a1.593 1.593 0 0 0-.048-.227.373.373 0 0 0 .047-.305.966.966 0 0 0 .955-.964A.967.967 0 0 0 2.617 0a.966.966 0 0 0-.965.963c0 .42.271.78.646.91.063.093.094.155.025.247a.138.138 0 0 0-.026.128c.027.087.047.168.056.246.01.075.01.143 0 .21a.802.802 0 0 1-.164.33c-.047.053-.097.091-.138.085a.261.261 0 0 0-.139.02.257.257 0 0 0-.106.092c-.02.03-.074.05-.134.061-.08.014-.174.012-.242.012a.758.758 0 0 1-.415-.11.569.569 0 0 1-.219-.302v-.006A1.013 1.013 0 0 1 .74 2.54c0-.106.018-.208.055-.29a.155.155 0 0 0 .013-.075V2.17C.8 2.072.715 2.077.763 1.953V1.95a.457.457 0 0 1 .105-.157h.003l.003-.003a.633.633 0 0 0 .132-.23c.041-.102.09-.225.183-.284a.14.14 0 0 0 .076-.125v-.052A.372.372 0 0 0 1.16.841h-.002A.413.413 0 0 0 .904.724a.816.816 0 0 1-.469-.21.508.508 0 0 1-.16-.377"></path></g></svg></defs>
                                    <use xlink:href="#ui_icon_login" fill="#FFFFFF"></use>
                                </svg>