<svg xmlns:xlink="http://www.w3.org/1999/xlink" class="svgspr svgspr_ui_icon_basket" xmlns="http://www.w3.org/2000/svg" width="18"  height="18" ><defs><svg viewBox="0 0 4.708 4.622" id="ui_icon_basket" xmlns="http://www.w3.org/2000/svg"><defs><clipPath clipPathUnits="userSpaceOnUse" id="ga"><path d="M0 3.467h3.531V0H0z"></path></clipPath></defs><g clip-path="url(#ga)" transform="matrix(1.33333 0 0 -1.33333 0 4.622)"><path d="M2.523 1.941H.313l.132-.507h1.943v.001zM.726.543H.68a.198.198 0 0 1-.108-.05L.569.487A.187.187 0 0 1 .513.355C.513.3.535.255.569.22A.19.19 0 0 1 .703.166c.052 0 .1.02.134.053a.188.188 0 0 1 .056.136c0 .052-.021.1-.056.133a.184.184 0 0 1-.111.055m1.618.002h-.017V.542h-.004A.192.192 0 0 1 2.21.488a.191.191 0 0 1 0-.269.19.19 0 0 1 .134-.053.18.18 0 0 1 .13.05L2.48.22a.191.191 0 0 1 0 .27.19.19 0 0 1-.135.056zm-.917 1.863h.012v.002h.006l.002.002h.002l.005.004h.002v.002h.004v.001h.002v.001h.002l.002.001.004.002v.002h.002v.001h.002v.003l.003.002.003.002.508.51a.082.082 0 0 1 0 .115.083.083 0 0 1-.115 0l-.371-.37v.695a.083.083 0 1 1-.166 0v-.696l-.37.371a.086.086 0 0 1-.118 0 .086.086 0 0 1 0-.116l.509-.509.002-.002.002-.002h.002v-.002h.002v-.002h.004v-.002l.004-.002h.002l.002-.002h.003v-.003h.003l.006-.004h.003l.002-.002h.004l.002-.002h.01l.008-.002zm-1.29-.193h2.46l.258.97c.014.064.068.11.137.11h.402a.138.138 0 0 0 0-.276h-.298L2.472.686a.355.355 0 0 0 .125-.583L2.59.098a.354.354 0 0 0-.6.257c0 .068.02.133.053.188h-1.04a.354.354 0 0 0-.55-.44H.452a.356.356 0 0 0-.05.442.137.137 0 0 0 .018.273h1.802l.092.342H.339a.138.138 0 0 0-.136.113l-.2.771a.139.139 0 0 0 .1.167.221.221 0 0 0 .035.004"></path></g></svg></defs>
                                                                        <use xlink:href="#ui_icon_basket" fill="#FFFFFF"></use>
                                                                    </svg>